<svg xmlns="http://www.w3.org/2000/svg" xmlns:xlink="http://www.w3.org/1999/xlink" width="500" zoomAndPan="magnify" viewBox="0 0 375 374.999991" height="500" preserveAspectRatio="xMidYMid meet" version="1.0"><defs><clipPath id="b4f8d963c5"><path d="M 253.472656 111.492188 L 339.714844 111.492188 L 339.714844 161 L 253.472656 161 Z M 253.472656 111.492188 " clip-rule="nonzero"/></clipPath><clipPath id="d5259f496e"><path d="M 276.417969 119.675781 L 339.714844 119.675781 L 339.714844 144.90625 L 276.417969 144.90625 Z M 276.417969 119.675781 " clip-rule="nonzero"/></clipPath><clipPath id="c8717940c5"><path d="M 35.292969 53.75 L 297 53.75 L 297 316 L 35.292969 316 Z M 35.292969 53.75 " clip-rule="nonzero"/></clipPath><clipPath id="c4b1d7623e"><path d="M 54 53.75 L 161 53.75 L 161 151 L 54 151 Z M 54 53.75 " clip-rule="nonzero"/></clipPath><clipPath id="0dcd901240"><path d="M 168 53.75 L 203 53.75 L 203 85 L 168 85 Z M 168 53.75 " clip-rule="nonzero"/></clipPath><clipPath id="39389531db"><path d="M 165 53.75 L 240 53.75 L 240 77 L 165 77 Z M 165 53.75 " clip-rule="nonzero"/></clipPath><clipPath id="815281167b"><path d="M 35.292969 53.75 L 274 53.75 L 274 281 L 35.292969 281 Z M 35.292969 53.75 " clip-rule="nonzero"/></clipPath><clipPath id="804ba76f6a"><path d="M 54 53.75 L 161 53.75 L 161 151 L 54 151 Z M 54 53.75 " clip-rule="nonzero"/></clipPath><clipPath id="2c7594d68a"><path d="M 168 53.75 L 203 53.75 L 203 85 L 168 85 Z M 168 53.75 " clip-rule="nonzero"/></clipPath><clipPath id="201296424c"><path d="M 284.140625 282.671875 L 311.402344 282.671875 L 311.402344 321.5 L 284.140625 321.5 Z M 284.140625 282.671875 " clip-rule="nonzero"/></clipPath></defs><path fill="#5b7b3f" d="M 316.691406 63.875 C 316.667969 64.792969 316.636719 65.714844 316.578125 66.632812 C 315.753906 81.183594 310.953125 95.511719 302.855469 107.527344 C 301.757812 109.160156 300.597656 110.75 299.378906 112.292969 C 294.710938 118.203125 289.167969 123.417969 282.859375 127.632812 C 276.28125 132.023438 268.984375 135.296875 261.351562 137.367188 C 258.9375 138.023438 256.484375 138.558594 254.011719 138.972656 C 248.886719 139.824219 243.675781 140.148438 238.484375 139.917969 C 237.097656 137.691406 236.640625 135.027344 236.378906 132.417969 C 234.378906 112.164062 243.628906 91.390625 259.34375 78.464844 C 274.453125 66.035156 294.992188 60.851562 314.375 63.519531 C 315.148438 63.625 315.921875 63.742188 316.691406 63.875 " fill-opacity="1" fill-rule="nonzero"/><path fill="#4d6b32" d="M 302.855469 107.527344 C 297.546875 115.421875 290.8125 122.316406 282.859375 127.632812 C 274.199219 133.417969 264.285156 137.257812 254.011719 138.972656 C 257.746094 132.820312 261.679688 126.75 266.785156 121.710938 C 276.242188 112.378906 289.601562 107.175781 302.855469 107.527344 " fill-opacity="1" fill-rule="nonzero"/><g clip-path="url(#b4f8d963c5)"><path fill="#5b7b3f" d="M 339.714844 120.835938 C 339.25 121.84375 338.757812 122.84375 338.238281 123.835938 C 331.976562 135.832031 321.824219 146.453125 310.011719 152.832031 C 297.222656 159.734375 282.171875 162.355469 267.808594 160.183594 C 262.855469 159.429688 257.890625 158.066406 253.6875 155.339844 C 255.140625 148.945312 257.777344 142.855469 261.351562 137.367188 C 267.667969 127.65625 276.902344 119.828125 287.65625 115.511719 C 291.433594 114 295.371094 112.929688 299.378906 112.292969 C 312.625 110.183594 326.644531 112.800781 338.097656 119.804688 C 338.640625 120.140625 339.179688 120.484375 339.714844 120.835938 " fill-opacity="1" fill-rule="nonzero"/></g><path fill="#4d6b32" d="M 316.691406 63.875 C 316.667969 64.792969 316.636719 65.714844 316.578125 66.632812 C 300.835938 84.660156 283.273438 101.15625 264.300781 115.730469 L 262.042969 112.785156 C 281.054688 98.183594 298.640625 81.625 314.375 63.519531 C 315.148438 63.625 315.921875 63.742188 316.691406 63.875 " fill-opacity="1" fill-rule="nonzero"/><g clip-path="url(#d5259f496e)"><path fill="#4d6b32" d="M 339.714844 120.835938 C 339.25 121.84375 338.757812 122.84375 338.238281 123.835938 C 318.738281 132.9375 298.277344 139.957031 277.296875 144.746094 L 276.472656 141.128906 C 297.710938 136.28125 318.40625 129.121094 338.097656 119.804688 C 338.640625 120.140625 339.179688 120.484375 339.714844 120.835938 " fill-opacity="1" fill-rule="nonzero"/></g><g clip-path="url(#c8717940c5)"><path fill="#97b27d" d="M 296.574219 184.433594 C 296.574219 227.367188 275.882812 265.464844 243.933594 289.285156 C 222.175781 305.511719 195.195312 315.113281 165.976562 315.113281 C 108.90625 315.113281 60.386719 278.488281 42.613281 227.445312 C 37.925781 213.976562 35.378906 199.5 35.378906 184.433594 C 35.378906 159.601562 42.296875 136.390625 54.3125 116.621094 C 76.386719 80.304688 115.65625 55.605469 160.8125 53.847656 C 162.527344 53.78125 164.246094 53.75 165.976562 53.75 C 166.679688 53.75 167.382812 53.753906 168.082031 53.765625 C 179.875 53.953125 191.285156 55.703125 202.117188 58.820312 C 215.773438 62.746094 228.511719 68.839844 239.933594 76.714844 C 251.964844 85 262.539062 95.25 271.191406 107.003906 C 287.148438 128.675781 296.574219 155.453125 296.574219 184.433594 " fill-opacity="1" fill-rule="nonzero"/></g><g clip-path="url(#c4b1d7623e)"><path fill="#698c4b" d="M 157.472656 86.097656 C 157.070312 87.664062 155.996094 88.984375 154.742188 90.003906 C 147.792969 95.667969 136.527344 92.648438 129.519531 98.234375 C 127.523438 99.824219 125.929688 102.082031 123.503906 102.867188 C 121.007812 103.675781 118.335938 102.710938 115.730469 102.398438 C 109.539062 101.65625 103.054688 105.050781 100.136719 110.566406 C 99.210938 112.308594 98.589844 114.269531 97.207031 115.679688 C 95.824219 117.089844 93.277344 117.65625 91.953125 116.195312 C 91.304688 115.480469 91.113281 114.480469 90.746094 113.589844 C 89.589844 110.78125 86.460938 109.242188 83.523438 109.332031 C 79.882812 109.445312 77.304688 112.859375 75.789062 115.90625 C 74.695312 118.101562 74.238281 120.6875 74.933594 123.042969 C 75.472656 124.871094 76.65625 126.429688 77.515625 128.132812 C 78.371094 129.839844 78.890625 131.917969 78.042969 133.625 C 77.421875 134.867188 76.179688 135.703125 75.550781 136.941406 C 74.835938 138.347656 75.019531 140.035156 75.394531 141.570312 C 75.769531 143.105469 76.3125 144.632812 76.261719 146.207031 C 76.210938 147.785156 75.367188 149.480469 73.855469 149.921875 C 72.597656 150.285156 71.210938 149.675781 70.335938 148.707031 C 67.472656 145.550781 67.777344 140.453125 64.652344 137.394531 C 63.011719 135.78125 60.523438 135.058594 59.300781 133.113281 C 57.492188 130.238281 59.355469 126.367188 58.417969 123.09375 C 58.019531 121.710938 57.140625 120.523438 56.28125 119.367188 C 55.5625 118.40625 54.90625 117.496094 54.3125 116.621094 C 76.386719 80.304688 115.65625 55.605469 160.8125 53.847656 C 161.105469 60.058594 161.402344 66.398438 157.496094 70.957031 C 156.769531 71.804688 155.878906 72.570312 154.800781 72.859375 C 151.992188 73.621094 149.527344 71.0625 147.113281 69.433594 C 144.695312 67.808594 140.195312 68.023438 140.175781 70.933594 C 140.164062 72.820312 142.222656 73.96875 144.015625 74.546875 C 147.148438 75.554688 150.476562 76.152344 153.28125 77.882812 C 156.085938 79.609375 158.292969 82.90625 157.472656 86.097656 " fill-opacity="1" fill-rule="nonzero"/></g><g clip-path="url(#0dcd901240)"><path fill="#698c4b" d="M 202.117188 58.820312 C 201.449219 61.480469 199.941406 63.898438 197.65625 65.390625 C 196.34375 66.25 194.816406 66.796875 193.628906 67.824219 C 192.210938 69.054688 191.382812 70.878906 189.898438 72.023438 C 186.664062 74.511719 180.820312 73.550781 179.308594 77.34375 C 178.644531 79.027344 179.238281 81.03125 178.484375 82.679688 C 177.394531 85.0625 173.839844 85.398438 171.71875 83.867188 C 169.59375 82.335938 168.671875 79.621094 168.292969 77.027344 C 167.492188 71.53125 168.566406 65.953125 168.660156 60.402344 C 168.699219 58.207031 168.542969 55.9375 168.082031 53.765625 C 179.875 53.953125 191.285156 55.703125 202.117188 58.820312 " fill-opacity="1" fill-rule="nonzero"/></g><path fill="#698c4b" d="M 100.558594 154.675781 C 93.445312 149.898438 84.011719 155.335938 79.988281 161.582031 C 79.71875 162 79.453125 162.421875 79.199219 162.851562 C 75.597656 168.875 73.207031 175.863281 71.792969 182.726562 C 70.421875 189.402344 70.808594 196.851562 73.789062 203.046875 C 76.980469 209.675781 83.027344 214.710938 85.644531 221.585938 C 87.867188 227.425781 87.351562 233.957031 86.058594 240.078125 C 84.765625 246.191406 82.734375 252.164062 81.984375 258.371094 C 81.25 264.441406 81.773438 270.65625 83.511719 276.515625 C 84.941406 281.335938 87.609375 286.316406 92.316406 288.074219 C 93.242188 288.417969 94.277344 288.621094 95.21875 288.316406 C 96.238281 287.988281 96.992188 287.121094 97.558594 286.207031 C 101.660156 279.605469 98.90625 269.328125 105.144531 264.695312 C 108.164062 262.453125 112.367188 262.453125 115.523438 260.410156 C 122.207031 256.085938 120.835938 245.660156 125.515625 239.214844 C 127.5625 236.398438 130.640625 234.539062 133.632812 232.761719 C 138.53125 229.84375 143.425781 226.933594 148.324219 224.015625 C 152.871094 221.3125 157.484375 218.550781 161.070312 214.664062 C 164.65625 210.777344 167.136719 205.527344 166.496094 200.273438 C 165.867188 195.128906 162.074219 190.507812 157.152344 188.890625 C 154.433594 187.996094 151.375 187.925781 149.019531 186.296875 C 146.472656 184.539062 145.332031 181.367188 143.234375 179.089844 C 137.441406 172.8125 126.285156 174.894531 120.085938 169.019531 C 117.203125 166.285156 115.691406 162.050781 112.144531 160.257812 C 109.898438 159.128906 107.191406 159.191406 104.964844 158.019531 C 103.332031 157.160156 102.089844 155.707031 100.558594 154.675781 " fill-opacity="1" fill-rule="nonzero"/><path fill="#698c4b" d="M 296.574219 184.433594 C 296.574219 227.367188 275.882812 265.464844 243.933594 289.285156 C 241.480469 288.726562 239.152344 287.929688 237.070312 286.894531 C 233.398438 285.070312 230.261719 281.613281 229.976562 277.515625 C 229.421875 269.429688 239.613281 263.195312 238.179688 255.214844 C 237.894531 253.636719 237.152344 252.007812 237.6875 250.5 C 238.546875 248.09375 241.886719 247.761719 243.601562 245.875 C 245.277344 244.019531 245.007812 241.09375 244.019531 238.796875 C 243.984375 238.714844 243.945312 238.632812 243.90625 238.550781 C 242.917969 236.355469 241.421875 234.386719 240.691406 232.09375 C 239.445312 228.195312 240.761719 223.605469 243.886719 220.960938 C 245.476562 219.613281 247.453125 218.753906 248.929688 217.277344 C 250.402344 215.800781 251.226562 213.292969 249.945312 211.652344 C 248.558594 209.878906 245.273438 209.746094 244.863281 207.53125 C 244.699219 206.652344 245.113281 205.78125 245.234375 204.894531 C 245.578125 202.308594 243.300781 199.972656 240.789062 199.28125 C 238.28125 198.589844 235.617188 199.105469 233.054688 199.558594 C 229.089844 200.257812 225.003906 200.792969 221.058594 199.996094 C 217.117188 199.199219 213.285156 196.847656 211.671875 193.15625 C 209.542969 188.300781 212.320312 181.921875 217.320312 180.164062 C 220.507812 179.046875 224.59375 179.398438 226.605469 176.675781 C 227.75 175.125 227.824219 172.964844 228.992188 171.425781 C 231.996094 167.457031 240.566406 169.21875 241.222656 164.28125 C 241.390625 163.015625 240.839844 161.769531 240.21875 160.652344 C 238.695312 157.921875 236.640625 155.445312 235.664062 152.476562 C 234.691406 149.503906 235.167969 145.699219 237.824219 144.050781 C 239.042969 143.296875 240.527344 143.109375 241.957031 143.085938 C 249.546875 142.941406 256.5625 146.753906 263.855469 148.863281 C 266.355469 149.585938 269.207031 150.070312 271.433594 148.722656 C 273.660156 147.375 274.226562 143.472656 271.871094 142.363281 C 270.597656 141.765625 269.058594 142.203125 267.710938 141.78125 C 264.933594 140.90625 264.535156 137.238281 264.21875 134.34375 C 263.898438 131.445312 261.914062 127.820312 259.125 128.664062 C 257.71875 129.09375 256.8125 130.59375 255.378906 130.925781 C 253.5 131.359375 251.839844 129.601562 251 127.867188 C 250.164062 126.128906 249.582031 124.097656 247.96875 123.042969 C 245.277344 121.277344 241.695312 123.386719 239.632812 125.859375 C 237.570312 128.328125 235.773438 131.433594 232.675781 132.304688 C 228.042969 133.601562 223.515625 128.296875 224.273438 123.542969 C 225.035156 118.789062 229.445312 115.335938 234.070312 114.007812 C 237.113281 113.140625 240.679688 112.765625 242.535156 110.203125 C 245.125 106.628906 242.332031 101.445312 238.605469 99.082031 C 234.878906 96.71875 230.3125 95.828125 226.816406 93.132812 C 223.324219 90.4375 221.554688 84.535156 225.015625 81.804688 C 227.90625 79.523438 232.265625 81.019531 235.6875 79.671875 C 237.304688 79.042969 238.585938 77.820312 239.933594 76.714844 C 251.964844 85 262.539062 95.25 271.191406 107.003906 C 287.148438 128.675781 296.574219 155.453125 296.574219 184.433594 " fill-opacity="1" fill-rule="nonzero"/><g clip-path="url(#39389531db)"><path fill="#eef4e8" d="M 239.933594 76.714844 C 228.511719 68.839844 215.773438 62.746094 202.117188 58.820312 C 215.773438 62.746094 228.511719 68.839844 239.933594 76.714844 M 168.082031 53.765625 C 167.382812 53.753906 166.679688 53.75 165.976562 53.75 C 166.679688 53.75 167.382812 53.753906 168.082031 53.765625 " fill-opacity="1" fill-rule="nonzero"/></g><g clip-path="url(#815281167b)"><path fill="#9bb780" d="M 147.835938 280.710938 C 131.339844 280.710938 115.558594 277.648438 101.023438 272.066406 C 101.664062 269.125 102.730469 266.488281 105.144531 264.695312 C 108.164062 262.453125 112.367188 262.453125 115.523438 260.410156 C 122.207031 256.085938 120.835938 245.660156 125.515625 239.214844 C 127.5625 236.398438 130.640625 234.539062 133.632812 232.761719 C 138.53125 229.84375 143.425781 226.933594 148.324219 224.015625 C 152.871094 221.3125 157.484375 218.550781 161.070312 214.664062 C 164.65625 210.777344 167.136719 205.527344 166.496094 200.273438 C 165.867188 195.128906 162.074219 190.507812 157.152344 188.890625 C 154.433594 187.996094 151.375 187.925781 149.019531 186.296875 C 146.472656 184.539062 145.332031 181.367188 143.234375 179.089844 C 137.441406 172.8125 126.285156 174.894531 120.085938 169.019531 C 117.203125 166.285156 115.691406 162.050781 112.144531 160.257812 C 109.898438 159.128906 107.191406 159.191406 104.964844 158.019531 C 103.332031 157.160156 102.089844 155.707031 100.558594 154.675781 C 98.664062 153.402344 96.601562 152.855469 94.523438 152.855469 C 88.800781 152.855469 82.941406 157 79.988281 161.582031 C 79.71875 162 79.453125 162.421875 79.199219 162.851562 C 75.597656 168.875 73.207031 175.863281 71.792969 182.726562 C 70.421875 189.402344 70.808594 196.851562 73.789062 203.046875 C 76.980469 209.675781 83.027344 214.710938 85.644531 221.585938 C 87.867188 227.425781 87.351562 233.957031 86.058594 240.078125 C 84.765625 246.191406 82.734375 252.164062 81.984375 258.371094 C 81.808594 259.816406 81.707031 261.265625 81.671875 262.71875 C 66.386719 253.714844 53.089844 241.679688 42.613281 227.445312 C 37.992188 214.160156 35.449219 199.898438 35.378906 185.050781 C 35.378906 184.84375 35.378906 184.636719 35.378906 184.433594 C 35.378906 159.601562 42.296875 136.390625 54.3125 116.621094 C 54.90625 117.496094 55.5625 118.40625 56.28125 119.367188 C 57.140625 120.523438 58.019531 121.710938 58.417969 123.09375 C 59.355469 126.367188 57.492188 130.238281 59.300781 133.113281 C 60.523438 135.058594 63.011719 135.78125 64.652344 137.394531 C 67.777344 140.453125 67.472656 145.550781 70.335938 148.707031 C 71.035156 149.484375 72.0625 150.027344 73.089844 150.027344 C 73.347656 150.027344 73.601562 149.992188 73.855469 149.921875 C 75.367188 149.480469 76.210938 147.785156 76.261719 146.207031 C 76.3125 144.632812 75.769531 143.105469 75.394531 141.570312 C 75.019531 140.035156 74.835938 138.347656 75.550781 136.941406 C 76.179688 135.703125 77.421875 134.867188 78.042969 133.625 C 78.890625 131.917969 78.371094 129.839844 77.515625 128.132812 C 76.65625 126.429688 75.472656 124.871094 74.933594 123.042969 C 74.238281 120.6875 74.695312 118.101562 75.789062 115.90625 C 77.304688 112.859375 79.882812 109.445312 83.523438 109.332031 C 83.605469 109.332031 83.6875 109.328125 83.769531 109.328125 C 86.632812 109.328125 89.621094 110.859375 90.746094 113.589844 C 91.113281 114.480469 91.304688 115.480469 91.953125 116.195312 C 92.496094 116.792969 93.242188 117.050781 94.03125 117.050781 C 95.167969 117.050781 96.390625 116.515625 97.207031 115.679688 C 98.589844 114.269531 99.210938 112.308594 100.136719 110.566406 C 102.785156 105.558594 108.375 102.296875 114.015625 102.296875 C 114.585938 102.296875 115.160156 102.332031 115.730469 102.398438 C 117.597656 102.625 119.503906 103.183594 121.351562 103.183594 C 122.078125 103.183594 122.796875 103.097656 123.503906 102.867188 C 125.929688 102.082031 127.523438 99.824219 129.519531 98.234375 C 136.527344 92.648438 147.792969 95.667969 154.742188 90.003906 C 155.996094 88.984375 157.070312 87.664062 157.472656 86.097656 C 158.292969 82.90625 156.085938 79.609375 153.28125 77.882812 C 150.476562 76.152344 147.148438 75.554688 144.015625 74.546875 C 142.222656 73.96875 140.164062 72.820312 140.175781 70.933594 C 140.1875 69.199219 141.792969 68.421875 143.597656 68.421875 C 144.820312 68.421875 146.136719 68.777344 147.113281 69.433594 C 149.226562 70.859375 151.378906 73 153.769531 73 C 154.105469 73 154.449219 72.957031 154.800781 72.859375 C 155.878906 72.570312 156.769531 71.804688 157.496094 70.957031 C 161.402344 66.398438 161.105469 60.058594 160.8125 53.847656 C 162.527344 53.78125 164.246094 53.75 165.976562 53.75 C 166.679688 53.75 167.382812 53.753906 168.082031 53.765625 C 168.542969 55.9375 168.699219 58.207031 168.660156 60.402344 C 168.566406 65.953125 167.492188 71.53125 168.292969 77.027344 C 168.671875 79.621094 169.59375 82.335938 171.71875 83.867188 C 172.570312 84.484375 173.65625 84.796875 174.71875 84.796875 C 176.300781 84.796875 177.832031 84.105469 178.484375 82.679688 C 179.238281 81.03125 178.644531 79.027344 179.308594 77.34375 C 180.820312 73.550781 186.664062 74.511719 189.898438 72.023438 C 191.382812 70.878906 192.210938 69.054688 193.628906 67.824219 C 194.816406 66.796875 196.34375 66.25 197.65625 65.390625 C 199.941406 63.898438 201.449219 61.480469 202.117188 58.820312 C 215.773438 62.746094 228.511719 68.839844 239.933594 76.714844 C 238.585938 77.820312 237.304688 79.042969 235.6875 79.671875 C 232.265625 81.019531 227.90625 79.523438 225.015625 81.804688 C 221.554688 84.535156 223.324219 90.4375 226.816406 93.132812 C 230.3125 95.828125 234.878906 96.71875 238.605469 99.082031 C 242.332031 101.445312 245.125 106.628906 242.535156 110.203125 C 240.679688 112.765625 237.113281 113.140625 234.070312 114.007812 C 229.445312 115.335938 225.035156 118.789062 224.273438 123.542969 C 223.59375 127.800781 227.15625 132.5 231.234375 132.5 C 231.710938 132.5 232.191406 132.4375 232.675781 132.304688 C 235.773438 131.433594 237.570312 128.328125 239.632812 125.859375 C 241.164062 124.023438 243.53125 122.390625 245.75 122.390625 C 246.519531 122.390625 247.277344 122.585938 247.96875 123.042969 C 249.582031 124.097656 250.164062 126.128906 251 127.867188 C 251.75 129.421875 253.160156 130.992188 254.792969 130.992188 C 254.984375 130.992188 255.179688 130.972656 255.378906 130.925781 C 256.8125 130.59375 257.71875 129.09375 259.125 128.664062 C 259.40625 128.582031 259.679688 128.542969 259.941406 128.542969 C 262.296875 128.542969 263.929688 131.734375 264.21875 134.34375 C 264.535156 137.238281 264.933594 140.90625 267.710938 141.78125 C 269.058594 142.203125 270.597656 141.765625 271.871094 142.363281 C 274.226562 143.472656 273.660156 147.375 271.433594 148.722656 C 270.410156 149.34375 269.253906 149.574219 268.0625 149.574219 C 266.660156 149.574219 265.207031 149.253906 263.855469 148.863281 C 256.695312 146.792969 249.800781 143.082031 242.367188 143.082031 C 242.230469 143.082031 242.09375 143.082031 241.957031 143.085938 C 240.527344 143.109375 239.042969 143.296875 237.824219 144.050781 C 235.167969 145.699219 234.691406 149.503906 235.664062 152.476562 C 236.640625 155.445312 238.695312 157.921875 240.21875 160.652344 C 240.839844 161.769531 241.390625 163.015625 241.222656 164.28125 C 240.566406 169.21875 231.996094 167.457031 228.992188 171.425781 C 227.824219 172.964844 227.75 175.125 226.605469 176.675781 C 224.59375 179.398438 220.507812 179.046875 217.320312 180.164062 C 212.320312 181.921875 209.542969 188.300781 211.671875 193.15625 C 213.285156 196.847656 217.117188 199.199219 221.058594 199.996094 C 222.457031 200.277344 223.871094 200.394531 225.292969 200.394531 C 227.882812 200.394531 230.496094 200.011719 233.054688 199.558594 C 234.71875 199.265625 236.421875 198.945312 238.101562 198.945312 C 239.007812 198.945312 239.910156 199.039062 240.789062 199.28125 C 243.300781 199.972656 245.578125 202.308594 245.234375 204.894531 C 245.113281 205.78125 244.699219 206.652344 244.863281 207.53125 C 245.273438 209.746094 248.558594 209.878906 249.945312 211.652344 C 251.226562 213.292969 250.402344 215.800781 248.929688 217.277344 C 247.453125 218.753906 245.476562 219.613281 243.886719 220.960938 C 240.761719 223.605469 239.445312 228.195312 240.691406 232.09375 C 241.421875 234.386719 242.917969 236.355469 243.90625 238.550781 C 238.394531 244.539062 232.332031 250.007812 225.796875 254.882812 C 204.039062 271.105469 177.058594 280.710938 147.835938 280.710938 " fill-opacity="1" fill-rule="nonzero"/></g><g clip-path="url(#804ba76f6a)"><path fill="#769858" d="M 73.089844 150.027344 C 72.0625 150.027344 71.035156 149.484375 70.335938 148.707031 C 67.472656 145.550781 67.777344 140.453125 64.652344 137.394531 C 63.011719 135.78125 60.523438 135.058594 59.300781 133.113281 C 57.492188 130.238281 59.355469 126.367188 58.417969 123.09375 C 58.019531 121.710938 57.140625 120.523438 56.28125 119.367188 C 55.5625 118.40625 54.90625 117.496094 54.3125 116.621094 C 76.386719 80.304688 115.65625 55.605469 160.8125 53.847656 C 161.105469 60.058594 161.402344 66.398438 157.496094 70.957031 C 156.769531 71.804688 155.878906 72.570312 154.800781 72.859375 C 154.449219 72.957031 154.105469 73 153.769531 73 C 151.378906 73 149.226562 70.859375 147.113281 69.433594 C 146.136719 68.777344 144.820312 68.421875 143.597656 68.421875 C 141.792969 68.421875 140.1875 69.199219 140.175781 70.933594 C 140.164062 72.820312 142.222656 73.96875 144.015625 74.546875 C 147.148438 75.554688 150.476562 76.152344 153.28125 77.882812 C 156.085938 79.609375 158.292969 82.90625 157.472656 86.097656 C 157.070312 87.664062 155.996094 88.984375 154.742188 90.003906 C 147.792969 95.667969 136.527344 92.648438 129.519531 98.234375 C 127.523438 99.824219 125.929688 102.082031 123.503906 102.867188 C 122.796875 103.097656 122.078125 103.183594 121.351562 103.183594 C 119.503906 103.183594 117.597656 102.625 115.730469 102.398438 C 115.160156 102.332031 114.585938 102.296875 114.015625 102.296875 C 108.375 102.296875 102.785156 105.558594 100.136719 110.566406 C 99.210938 112.308594 98.589844 114.269531 97.207031 115.679688 C 96.390625 116.515625 95.167969 117.050781 94.03125 117.050781 C 93.242188 117.050781 92.496094 116.792969 91.953125 116.195312 C 91.304688 115.480469 91.113281 114.480469 90.746094 113.589844 C 89.621094 110.859375 86.632812 109.328125 83.769531 109.328125 C 83.6875 109.328125 83.605469 109.332031 83.523438 109.332031 C 79.882812 109.445312 77.304688 112.859375 75.789062 115.90625 C 74.695312 118.101562 74.238281 120.6875 74.933594 123.042969 C 75.472656 124.871094 76.65625 126.429688 77.515625 128.132812 C 78.371094 129.839844 78.890625 131.917969 78.042969 133.625 C 77.421875 134.867188 76.179688 135.703125 75.550781 136.941406 C 74.835938 138.347656 75.019531 140.035156 75.394531 141.570312 C 75.769531 143.105469 76.3125 144.632812 76.261719 146.207031 C 76.210938 147.785156 75.367188 149.480469 73.855469 149.921875 C 73.601562 149.992188 73.347656 150.027344 73.089844 150.027344 " fill-opacity="1" fill-rule="nonzero"/></g><g clip-path="url(#2c7594d68a)"><path fill="#769858" d="M 174.71875 84.796875 C 173.65625 84.796875 172.570312 84.484375 171.71875 83.867188 C 169.59375 82.335938 168.671875 79.621094 168.292969 77.027344 C 167.492188 71.53125 168.566406 65.953125 168.660156 60.402344 C 168.699219 58.207031 168.542969 55.9375 168.082031 53.765625 C 179.875 53.953125 191.285156 55.703125 202.117188 58.820312 C 201.449219 61.480469 199.941406 63.898438 197.65625 65.390625 C 196.34375 66.25 194.816406 66.796875 193.628906 67.824219 C 192.210938 69.054688 191.382812 70.878906 189.898438 72.023438 C 186.664062 74.511719 180.820312 73.550781 179.308594 77.34375 C 178.644531 79.027344 179.238281 81.03125 178.484375 82.679688 C 177.832031 84.105469 176.300781 84.796875 174.71875 84.796875 " fill-opacity="1" fill-rule="nonzero"/></g><path fill="#769858" d="M 101.023438 272.066406 C 94.285156 269.476562 87.820312 266.34375 81.675781 262.722656 C 81.675781 262.71875 81.675781 262.71875 81.671875 262.71875 C 81.707031 261.265625 81.808594 259.816406 81.984375 258.371094 C 82.734375 252.164062 84.765625 246.191406 86.058594 240.078125 C 87.351562 233.957031 87.867188 227.425781 85.644531 221.585938 C 83.027344 214.710938 76.980469 209.675781 73.789062 203.046875 C 70.808594 196.851562 70.421875 189.402344 71.792969 182.726562 C 73.207031 175.863281 75.597656 168.875 79.199219 162.851562 C 79.453125 162.421875 79.71875 162 79.988281 161.582031 C 82.941406 157 88.800781 152.855469 94.523438 152.855469 C 96.601562 152.855469 98.664062 153.402344 100.558594 154.675781 C 102.089844 155.707031 103.332031 157.160156 104.964844 158.019531 C 107.191406 159.191406 109.898438 159.128906 112.144531 160.257812 C 115.691406 162.050781 117.203125 166.285156 120.085938 169.019531 C 126.285156 174.894531 137.441406 172.8125 143.234375 179.089844 C 145.332031 181.367188 146.472656 184.539062 149.019531 186.296875 C 151.375 187.925781 154.433594 187.996094 157.152344 188.890625 C 162.074219 190.507812 165.867188 195.128906 166.496094 200.273438 C 167.136719 205.527344 164.65625 210.777344 161.070312 214.664062 C 157.484375 218.550781 152.871094 221.3125 148.324219 224.015625 C 143.425781 226.933594 138.53125 229.84375 133.632812 232.761719 C 130.640625 234.539062 127.5625 236.398438 125.515625 239.214844 C 120.835938 245.660156 122.207031 256.085938 115.523438 260.410156 C 112.367188 262.453125 108.164062 262.453125 105.144531 264.695312 C 102.730469 266.488281 101.664062 269.125 101.023438 272.066406 " fill-opacity="1" fill-rule="nonzero"/><path fill="#769858" d="M 243.90625 238.550781 C 242.917969 236.355469 241.421875 234.386719 240.691406 232.09375 C 239.445312 228.195312 240.761719 223.605469 243.886719 220.960938 C 245.476562 219.613281 247.453125 218.753906 248.929688 217.277344 C 250.402344 215.800781 251.226562 213.292969 249.945312 211.652344 C 248.558594 209.878906 245.273438 209.746094 244.863281 207.53125 C 244.699219 206.652344 245.113281 205.78125 245.234375 204.894531 C 245.578125 202.308594 243.300781 199.972656 240.789062 199.28125 C 239.910156 199.039062 239.007812 198.945312 238.101562 198.945312 C 236.421875 198.945312 234.71875 199.265625 233.054688 199.558594 C 230.496094 200.011719 227.882812 200.394531 225.292969 200.394531 C 223.871094 200.394531 222.457031 200.277344 221.058594 199.996094 C 217.117188 199.199219 213.285156 196.847656 211.671875 193.15625 C 209.542969 188.300781 212.320312 181.921875 217.320312 180.164062 C 220.507812 179.046875 224.59375 179.398438 226.605469 176.675781 C 227.75 175.125 227.824219 172.964844 228.992188 171.425781 C 231.996094 167.457031 240.566406 169.21875 241.222656 164.28125 C 241.390625 163.015625 240.839844 161.769531 240.21875 160.652344 C 238.695312 157.921875 236.640625 155.445312 235.664062 152.476562 C 234.691406 149.503906 235.167969 145.699219 237.824219 144.050781 C 239.042969 143.296875 240.527344 143.109375 241.957031 143.085938 C 242.09375 143.082031 242.230469 143.082031 242.367188 143.082031 C 249.800781 143.082031 256.695312 146.792969 263.855469 148.863281 C 265.207031 149.253906 266.660156 149.574219 268.0625 149.574219 C 269.253906 149.574219 270.410156 149.34375 271.433594 148.722656 C 273.660156 147.375 274.226562 143.472656 271.871094 142.363281 C 270.597656 141.765625 269.058594 142.203125 267.710938 141.78125 C 264.933594 140.90625 264.535156 137.238281 264.21875 134.34375 C 263.929688 131.734375 262.296875 128.542969 259.941406 128.542969 C 259.679688 128.542969 259.40625 128.582031 259.125 128.664062 C 257.71875 129.09375 256.8125 130.59375 255.378906 130.925781 C 255.179688 130.972656 254.984375 130.992188 254.792969 130.992188 C 253.160156 130.992188 251.75 129.421875 251 127.867188 C 250.164062 126.128906 249.582031 124.097656 247.96875 123.042969 C 247.277344 122.585938 246.519531 122.390625 245.75 122.390625 C 243.53125 122.390625 241.164062 124.023438 239.632812 125.859375 C 237.570312 128.328125 235.773438 131.433594 232.675781 132.304688 C 232.191406 132.4375 231.710938 132.5 231.234375 132.5 C 227.15625 132.5 223.59375 127.800781 224.273438 123.542969 C 225.035156 118.789062 229.445312 115.335938 234.070312 114.007812 C 237.113281 113.140625 240.679688 112.765625 242.535156 110.203125 C 245.125 106.628906 242.332031 101.445312 238.605469 99.082031 C 234.878906 96.71875 230.3125 95.828125 226.816406 93.132812 C 223.324219 90.4375 221.554688 84.535156 225.015625 81.804688 C 227.90625 79.523438 232.265625 81.019531 235.6875 79.671875 C 237.304688 79.042969 238.585938 77.820312 239.933594 76.714844 C 251.964844 85 262.539062 95.25 271.191406 107.003906 C 275.886719 120.476562 278.433594 134.957031 278.433594 150.027344 C 278.433594 184.179688 265.34375 215.269531 243.90625 238.550781 " fill-opacity="1" fill-rule="nonzero"/><path fill="#f0eee4" d="M 154.589844 251.585938 C 152.230469 246.914062 152.359375 241.75 151.402344 236.539062 C 148.125 205.699219 130.667969 195.78125 131.433594 171.148438 C 131.710938 146.484375 174.742188 134.238281 188.875 142.808594 C 212.117188 160.519531 173.273438 182.414062 174.660156 199.0625 C 174.300781 205.734375 177.175781 211.476562 181.363281 216.554688 C 216.839844 250.761719 170.351562 279.667969 154.589844 251.585938 " fill-opacity="1" fill-rule="nonzero"/><path fill="#f0eee4" d="M 136.402344 149.183594 C 136.691406 151.960938 135.210938 154.390625 133.097656 154.609375 C 130.984375 154.828125 129.035156 152.757812 128.75 149.980469 C 128.460938 147.203125 129.941406 144.773438 132.054688 144.554688 C 134.167969 144.335938 136.117188 146.40625 136.402344 149.183594 " fill-opacity="1" fill-rule="nonzero"/><path fill="#f0eee4" d="M 144.742188 139.421875 C 145.09375 142.800781 143.382812 145.75 140.921875 146.003906 C 138.460938 146.257812 136.183594 143.726562 135.832031 140.351562 C 135.480469 136.972656 137.191406 134.027344 139.652344 133.769531 C 142.113281 133.515625 144.390625 136.046875 144.742188 139.421875 " fill-opacity="1" fill-rule="nonzero"/><path fill="#f0eee4" d="M 157.976562 131.433594 C 158.28125 136.414062 155.703125 140.628906 152.21875 140.839844 C 148.730469 141.054688 145.65625 137.1875 145.355469 132.207031 C 145.046875 127.222656 147.628906 123.011719 151.113281 122.796875 C 154.601562 122.585938 157.671875 126.449219 157.976562 131.433594 " fill-opacity="1" fill-rule="nonzero"/><path fill="#f0eee4" d="M 177.222656 125.589844 C 177.601562 131.765625 174.390625 136.984375 170.050781 137.25 C 165.707031 137.515625 161.882812 132.726562 161.507812 126.554688 C 161.128906 120.378906 164.339844 115.15625 168.679688 114.890625 C 173.019531 114.625 176.847656 119.417969 177.222656 125.589844 " fill-opacity="1" fill-rule="nonzero"/><path fill="#f0eee4" d="M 203.109375 123.820312 C 202.1875 133.046875 196.441406 140.023438 190.285156 139.40625 C 184.121094 138.789062 179.878906 130.808594 180.804688 121.582031 C 181.726562 112.355469 187.472656 105.375 193.632812 105.996094 C 199.792969 106.613281 204.035156 114.59375 203.109375 123.820312 " fill-opacity="1" fill-rule="nonzero"/><path fill="#4d6b32" d="M 196.238281 311.574219 C 192.179688 309.21875 188.988281 306.023438 186.652344 301.984375 C 184.320312 297.949219 183.15625 293.523438 183.15625 288.707031 C 183.15625 283.847656 184.285156 279.382812 186.542969 275.320312 C 188.804688 271.261719 191.949219 268.050781 195.984375 265.691406 C 200.019531 263.335938 204.609375 262.15625 209.761719 262.15625 C 213.894531 262.15625 217.453125 262.800781 220.441406 264.089844 C 223.429688 265.378906 226.09375 267.40625 228.425781 270.179688 L 221.207031 276.453125 C 218.148438 273.242188 214.332031 271.636719 209.761719 271.636719 C 206.554688 271.636719 203.734375 272.402344 201.308594 273.9375 C 198.875 275.46875 197.003906 277.535156 195.691406 280.136719 C 194.382812 282.738281 193.726562 285.597656 193.726562 288.707031 C 193.726562 291.820312 194.390625 294.664062 195.730469 297.242188 C 197.066406 299.820312 198.960938 301.863281 201.417969 303.367188 C 203.871094 304.878906 206.726562 305.632812 209.980469 305.632812 C 214.746094 305.632812 218.632812 303.976562 221.644531 300.671875 L 229.082031 307.019531 C 227.039062 309.5 224.378906 311.46875 221.097656 312.925781 C 217.820312 314.386719 214.039062 315.113281 209.761719 315.113281 C 204.804688 315.113281 200.296875 313.9375 196.238281 311.574219 " fill-opacity="1" fill-rule="nonzero"/><path fill="#4d6b32" d="M 241.035156 297.242188 C 242.347656 299.820312 244.21875 301.863281 246.648438 303.367188 C 249.078125 304.878906 251.898438 305.632812 255.105469 305.632812 C 258.3125 305.632812 261.121094 304.878906 263.527344 303.367188 C 265.933594 301.863281 267.78125 299.820312 269.066406 297.242188 C 270.351562 294.664062 271 291.820312 271 288.707031 C 271 285.597656 270.351562 282.738281 269.066406 280.136719 C 267.78125 277.535156 265.933594 275.46875 263.527344 273.9375 C 261.121094 272.402344 258.3125 271.636719 255.105469 271.636719 C 251.898438 271.636719 249.078125 272.402344 246.648438 273.9375 C 244.21875 275.46875 242.347656 277.535156 241.035156 280.136719 C 239.722656 282.738281 239.070312 285.597656 239.070312 288.707031 C 239.070312 291.820312 239.722656 294.664062 241.035156 297.242188 Z M 241.582031 311.574219 C 237.523438 309.21875 234.328125 306.023438 231.996094 301.984375 C 229.664062 297.949219 228.496094 293.523438 228.496094 288.707031 C 228.496094 283.894531 229.664062 279.457031 231.996094 275.394531 C 234.328125 271.335938 237.523438 268.113281 241.582031 265.730469 C 245.640625 263.347656 250.148438 262.15625 255.105469 262.15625 C 260.0625 262.15625 264.558594 263.347656 268.59375 265.730469 C 272.625 268.113281 275.796875 271.335938 278.109375 275.394531 C 280.414062 279.457031 281.570312 283.894531 281.570312 288.707031 C 281.570312 293.523438 280.414062 297.949219 278.109375 301.984375 C 275.796875 306.023438 272.625 309.21875 268.59375 311.574219 C 264.558594 313.9375 260.0625 315.113281 255.105469 315.113281 C 250.148438 315.113281 245.640625 313.9375 241.582031 311.574219 " fill-opacity="1" fill-rule="nonzero"/><g clip-path="url(#201296424c)"><path fill="#4d6b32" d="M 284.3125 320.640625 L 299.496094 302.734375 C 300.726562 301.289062 301.667969 299.96875 302.316406 298.773438 C 302.964844 297.582031 303.292969 296.441406 303.292969 295.355469 C 303.292969 293.695312 302.796875 292.363281 301.800781 291.367188 C 300.804688 290.371094 299.441406 289.875 297.707031 289.875 C 295.933594 289.875 294.570312 290.410156 293.613281 291.476562 C 292.652344 292.542969 292.175781 294.054688 292.175781 296.007812 L 284.3125 296.007812 C 284.3125 293.4375 284.890625 291.160156 286.050781 289.167969 C 287.207031 287.179688 288.8125 285.625 290.875 284.503906 C 292.9375 283.382812 295.25 282.824219 297.816406 282.824219 C 300.378906 282.824219 302.675781 283.355469 304.703125 284.421875 C 306.726562 285.488281 308.308594 286.945312 309.445312 288.789062 C 310.585938 290.636719 311.152344 292.679688 311.152344 294.921875 C 311.152344 296.476562 310.910156 297.933594 310.421875 299.289062 C 309.933594 300.644531 309.074219 302.101562 307.84375 303.65625 L 301.9375 311.363281 C 300.707031 312.953125 299.585938 314.113281 298.574219 314.835938 L 311.371094 314.835938 L 311.371094 321.507812 L 284.3125 321.507812 L 284.3125 320.640625 " fill-opacity="1" fill-rule="nonzero"/></g></svg>